<svg width="121" height="64" viewBox="0 0 121 64" fill="none" xmlns="http://www.w3.org/2000/svg">
<path d="M71.1821 24.997V25.0787V25.1604V25.2421V25.3237L71.2646 25.4054V25.4871V25.5688V25.6505L71.3471 25.7322V25.8139V25.8956V25.9773V26.059V26.1407V26.2223H71.4295V26.304V26.3857L72.9967 26.2223V26.1407V26.059V25.9773V25.8956V25.8139L72.9142 25.7322V25.6505V25.5688V25.4871V25.4054V25.3237L72.8317 25.2421V25.1604V25.0787V24.997L72.7492 24.9153V24.8336V24.7519V24.6702V24.5885L72.6667 24.5068L71.0996 24.9153V24.997H71.1821Z" fill="#1D1D1B"/>
<path d="M72.0894 22.7917V22.71V22.6283L72.0069 22.5467V22.465L71.9244 22.3833V22.3016V22.2199L71.8419 22.1382V22.0565H71.7594V21.9748L71.677 21.8931V21.8114L71.5945 21.7297V21.6481V21.5664L71.512 21.4847V21.403H71.4295V21.3213L70.0273 22.1382V22.2199L70.1098 22.3016L70.1923 22.3833V22.465V22.5467L70.2748 22.6283L70.3573 22.71V22.7917V22.8734L70.4398 22.9551V23.0368L70.5222 23.1185V23.2002V23.2819H70.6047V23.3636V23.4453L70.6872 23.5269L72.1719 22.8734L72.0894 22.7917Z" fill="#1D1D1B"/>
<path d="M70.4379 19.8504L70.3555 19.7687V19.687L70.273 19.6053L70.1905 19.5236L70.108 19.4419V19.3602L70.0255 19.2785H69.9431V19.1968L69.8606 19.1151L69.7781 19.0335L69.6956 18.9518L69.6131 18.8701V18.7884H69.5306L69.4482 18.7067V18.625H69.3657L68.2109 19.687V19.7687H68.2934L68.3759 19.8504V19.9321H68.4584V20.0137L68.5409 20.0954H68.6233V20.1771L68.7058 20.2588L68.7883 20.3405L68.8708 20.4222V20.5039L68.9533 20.5856L69.0358 20.6673L69.1182 20.749L69.2007 20.8307L70.5204 19.9321L70.4379 19.8504Z" fill="#1D1D1B"/>
<path d="M68.1293 17.4002H68.0469L67.9644 17.3185L67.8819 17.2368L67.7994 17.1551H67.7169L67.6345 17.0734L67.552 16.9918L67.4695 16.9101H67.387L67.3045 16.8284L67.222 16.7467H67.1396L67.0571 16.665L66.9746 16.5833L66.8921 16.5016H66.8096L66.7272 16.4199L65.9023 17.8087L65.9848 17.8904H66.0673L66.1498 17.972L66.2323 18.0537H66.3148V18.1354H66.3972L66.4797 18.2171H66.5622V18.2988H66.6447L66.7272 18.3805L66.8096 18.4622L66.8921 18.5439L66.9746 18.6256H67.0571V18.7073H67.1396L68.1293 17.4819V17.4002Z" fill="#1D1D1B"/>
<path d="M63.3451 16.5834L63.4276 16.6651H63.5101L63.5925 16.7468H63.675H63.7575L63.84 16.8285H63.9225L64.005 16.9101H64.0874H64.1699V16.9918H64.2524H64.3349L64.4174 17.0735H64.4998L65.2422 15.6031H65.1597H65.0772L64.9947 15.5214H64.9122L64.8298 15.4397H64.7473H64.6648L64.5823 15.358H64.4998H64.4174V15.2763H64.3349L64.2524 15.1946H64.1699H64.0874L64.005 15.1129H63.9225H63.84L63.7575 15.0312H63.675H63.5925L63.0977 16.5834H63.1801H63.2626H63.3451Z" fill="#1D1D1B"/>
<path d="M60.2939 16.0111L60.3763 16.0928H60.4588H60.5413H60.6238H60.7063H60.7888H60.8712H60.9537H61.0362H61.1187L61.2012 16.1745H61.2836H61.3661H61.4486H61.5311H61.6136L61.9435 14.6224H61.861H61.7785H61.6961L61.6136 14.5407H61.5311H61.4486H61.3661H61.2836H61.2012H61.1187L61.0362 14.459H60.9537H60.8712H60.7888H60.7063H60.6238H60.5413H60.4588H60.3763H60.2939H60.2114L60.1289 16.0111H60.2114H60.2939Z" fill="#1D1D1B"/>
<path d="M81.9853 25.0788V25.2421V25.3238V25.4055V25.5689V25.6506V25.7323L81.9028 25.8957V25.9774V26.1407V26.2224V26.3858L81.8203 26.4675V26.6309H84.4597V26.4675V26.3041L84.5422 26.2224V26.0591V25.8957V25.7323V25.6506V25.4872V25.3238L84.6247 25.1605V25.0788L81.9853 24.9971V25.0788Z" fill="#1D1D1B"/>
<path d="M81.5747 20.2593V20.4227V20.5861L81.6571 20.6678V20.8312V20.9946L81.7396 21.0762V21.2396V21.403V21.4847L81.8221 21.6481V21.8115V21.8932V22.0565V22.2199L81.9046 22.3833V22.465V22.6284L84.4615 22.3833V22.2199V22.0565V21.8932L84.379 21.7298V21.5664V21.4847V21.3213L84.2965 21.1579V20.9946V20.8312V20.6678L84.2141 20.5044V20.341V20.2593L84.1316 20.096V19.9326L84.0491 19.7692V19.6875L81.4922 20.2593H81.5747Z" fill="#1D1D1B"/>
<path d="M80.0059 15.603L80.0883 15.7664V15.8481L80.1708 16.0115L80.2533 16.0931V16.2565L80.3358 16.3382L80.4183 16.5016V16.5833L80.5007 16.7467L80.5832 16.8284V16.9917L80.6657 17.1551V17.2368L80.7482 17.4002V17.4819L80.8307 17.6453V17.727L80.9131 17.8903L83.3876 17.0734L83.3051 16.9917V16.8284L83.2226 16.665L83.1401 16.5016V16.4199L83.0577 16.2565V16.0931L82.9752 15.9298L82.8927 15.8481V15.6847L82.8102 15.5213L82.7277 15.3579V15.2762L82.6452 15.1129L82.5628 14.9495L82.4803 14.8678V14.7044L82.3978 14.541L80.0059 15.603Z" fill="#1D1D1B"/>
<path d="M77.5332 11.4369L77.6157 11.6003L77.6982 11.682L77.7806 11.7637L77.8631 11.927L77.9456 12.0087L78.0281 12.0904L78.1106 12.2538L78.1931 12.3355L78.2755 12.4172L78.358 12.5806V12.6623L78.4405 12.8256L78.523 12.9073L78.6055 12.989L78.6879 13.1524L78.7704 13.2341L78.8529 13.3158V13.4792L81.0799 12.1721V12.0087L80.9974 11.927L80.9149 11.7637L80.8325 11.682L80.75 11.5186L80.6675 11.3552L80.585 11.2735L80.5025 11.1101L80.42 11.0284L80.3376 10.8651L80.2551 10.7834L80.1726 10.62L80.0901 10.5383L80.0076 10.3749L79.9252 10.2932L79.8427 10.1298L79.6777 10.0481L79.5952 9.96646V9.88477L77.5332 11.4369Z" fill="#1D1D1B"/>
<path d="M74.3154 8.00614L74.4803 8.16952L74.5628 8.25121L74.6453 8.3329L74.7278 8.4146L74.8102 8.49629L74.9752 8.57798L75.0577 8.65967L75.1402 8.74136L75.2226 8.82305L75.3051 8.98643L75.3876 9.06812L75.5526 9.14981L75.6351 9.23151L75.7175 9.3132L75.8 9.39489L75.8825 9.55827H75.965L77.862 7.84276L77.7796 7.76107L77.6971 7.67938L77.6146 7.516L77.4496 7.4343L77.3672 7.35261L77.2847 7.18923L77.1197 7.10754L77.0372 7.02585L76.9548 6.94416L76.8723 6.78078L76.7073 6.69909L76.6248 6.61739L76.5424 6.5357L76.3774 6.37232L76.2949 6.29063L76.2124 6.20894L76.0475 6.12725L75.965 6.04556L75.8825 5.96387L74.1504 7.92445H74.2329L74.3154 8.00614Z" fill="#1D1D1B"/>
<path d="M70.2743 5.22841L70.3568 5.3101H70.5218L70.6043 5.39179L70.7692 5.47348L70.8517 5.55518L70.9342 5.63687L71.0991 5.71856H71.1816L71.3466 5.80025L71.4291 5.88194L71.5116 5.96363L71.6765 6.04532L71.759 6.12701L71.924 6.2087L72.0064 6.29039L72.0889 6.37209H72.2539L73.6561 4.24812L73.5736 4.16643L73.4086 4.08474L73.3261 4.00305L73.1612 3.92136L73.0787 3.83967L72.9137 3.75798L72.8313 3.67628L72.6663 3.59459H72.5838L72.4189 3.5129L72.2539 3.43121L72.1714 3.34952L72.0064 3.26783L71.924 3.18614L71.759 3.10445L71.594 3.02276L71.5116 2.94107L71.3466 2.85938L70.1094 5.14672L70.2743 5.22841Z" fill="#1D1D1B"/>
<path d="M65.8197 3.43086H65.9847L66.0672 3.51255H66.2321L66.3971 3.59424H66.4796L66.6445 3.67593H66.727L66.892 3.75762H67.0569L67.1394 3.83931L67.3044 3.921H67.3869L67.5518 4.00269H67.6343L67.7993 4.08438H67.8817L68.8715 1.71535H68.7066L68.6241 1.63366L68.4591 1.55196H68.2942L68.1292 1.47027L68.0467 1.38858H67.8817L67.7168 1.30689H67.5518L67.4693 1.2252L67.3044 1.14351H67.1394L66.9744 1.06182H66.892L66.727 0.980128H66.562L66.3971 0.898438H66.2321L65.5723 3.34917H65.7372L65.8197 3.43086Z" fill="#1D1D1B"/>
<path d="M61.037 2.61411H61.1194H61.2844H61.4494H61.6143H61.6968H61.8618L62.0267 2.6958H62.1092H62.2742H62.4391H62.5216L62.6866 2.77749H62.8515H63.0165H63.099L63.1815 2.85918L63.5939 0.326764L63.5114 0.245073H63.3464H63.1815H63.099L62.934 0.163382H62.7691H62.6041H62.4391L62.2742 0.0816909H62.1092H61.9443H61.7793H61.6143L61.4494 0H61.3669H61.2019H61.037H60.872L60.707 2.53242L60.872 2.61411H61.037Z" fill="#1D1D1B"/>
<path d="M76.707 25.3241V25.4058L76.7895 25.5692V25.6509V25.7326V25.896V25.9777V26.0593V26.2227L76.872 26.3044V26.3861V26.5495V26.6312H79.099V26.4678V26.3861V26.2227V26.141V25.9777V25.896V25.7326L79.0165 25.6509V25.4875V25.4058V25.2424V25.1607L78.934 24.9974V24.9157V24.834L76.707 25.2424V25.3241Z" fill="#1D1D1B"/>
<path d="M75.6352 21.3217V21.4851L75.7177 21.5668V21.6485L75.8002 21.7302V21.8119L75.8827 21.9753V22.057L75.9651 22.1387V22.2204V22.302L76.0476 22.4654V22.5471L76.1301 22.6288V22.7105V22.8739L76.2126 22.9556V23.0373V23.1189L78.4396 22.5471V22.3837L78.3571 22.302V22.1387L78.2746 22.057V21.9753L78.1921 21.8119V21.7302L78.1097 21.6485V21.4851L78.0272 21.4034V21.2401V21.1584L77.9447 21.0767L77.8622 20.9133V20.8316L77.7797 20.7499V20.5865L77.6972 20.5048V20.4231L77.6148 20.2598L75.5527 21.1584V21.2401L75.6352 21.3217Z" fill="#1D1D1B"/>
<path d="M73.4907 17.6452L73.5732 17.7269L73.6556 17.8086L73.7381 17.8903V17.972L73.8206 18.0537L73.9031 18.1354V18.2171L73.9856 18.2988L74.0681 18.3805L74.1505 18.4622V18.6255L74.233 18.7072L74.3155 18.7889V18.8706L74.398 18.9523L74.4805 19.034V19.1157L74.5629 19.1974V19.2791L76.5425 18.1354V18.0537L76.46 17.972L76.3775 17.8903V17.8086L76.295 17.6452L76.2126 17.5636L76.1301 17.4819L76.0476 17.4002V17.2368L75.9651 17.1551L75.8826 17.0734L75.8002 16.9917V16.91L75.7177 16.8283L75.6352 16.665L75.5527 16.5833L75.4702 16.5016L75.3878 16.4199V16.3382L75.3053 16.2565L75.2228 16.1748L73.4082 17.4819L73.4907 17.5636V17.6452Z" fill="#1D1D1B"/>
<path d="M73.5737 14.2963L73.4913 14.2146L73.4088 14.1329L73.3263 14.0512L73.2438 13.9695L73.1613 13.8878L73.0788 13.8061L72.9964 13.7244L72.9139 13.6427L72.8314 13.561L72.7489 13.4794L72.6664 13.3977L72.584 13.316L72.5015 13.2343L72.419 13.1526L72.3365 13.0709L72.254 12.9892L72.1716 12.9075L72.0066 12.8258L71.9241 12.7441L70.4395 14.4596L70.5219 14.5413L70.6044 14.623H70.6869L70.7694 14.7047L70.8519 14.7864L70.9343 14.8681L71.0168 14.9498L71.0993 15.0315H71.1818L71.2643 15.1132V15.1949L71.3467 15.2766L71.4292 15.3582L71.5117 15.4399L71.5942 15.5216H71.6767L71.7592 15.6033L71.8416 15.685L71.9241 15.7667L72.0066 15.8484V15.9301L73.6562 14.2963H73.5737Z" fill="#1D1D1B"/>
<path d="M68.7057 10.6194H68.6232L68.4582 10.5377L68.3757 10.456H68.2933L68.2108 10.3743L68.0458 10.2926H67.9633L67.8809 10.2109H67.7984L66.8086 12.2532H66.8911L66.9736 12.3349H67.056L67.1385 12.4166H67.3035L67.386 12.4983L67.4684 12.58H67.5509L67.6334 12.6617H67.7159L67.7984 12.7434L67.8809 12.825H68.0458L68.1283 12.9067H68.2108L68.2933 12.9884L68.3757 13.0701H68.4582L68.5407 13.1518L68.6232 13.2335H68.7057L69.9429 11.3546L69.8604 11.2729L69.6954 11.1912H69.613L69.5305 11.1095L69.448 11.0278H69.3655L69.2006 10.9462L69.1181 10.8645L69.0356 10.7828H68.8706L68.7881 10.7011L68.7057 10.6194Z" fill="#1D1D1B"/>
<path d="M63.4274 8.8229L63.2625 8.74121H63.18L62.7676 10.9469H62.8501L62.9325 11.0286H63.0975H63.18H63.2625L63.345 11.1102H63.5099H63.5924L63.6749 11.1919H63.7574H63.9223L64.0048 11.2736H64.0873H64.1698L64.3347 11.3553H64.4172H64.4997L64.5822 11.437H64.7471H64.8296V11.5187L65.5719 9.31305H65.4895H65.407L65.242 9.23136H65.1595L65.0771 9.14967H64.9121H64.8296L64.6646 9.06798H64.5822H64.4997L64.3347 8.98628H64.2522L64.0873 8.90459H64.0048H63.8398L63.7574 8.8229H63.6749H63.5099H63.4274Z" fill="#1D1D1B"/>
<path d="M63.3449 54.4062L63.18 54.5696L63.0975 54.733L63.015 54.8147L62.85 54.9781L62.7676 55.1415L62.6851 55.2232L62.5201 55.3865L62.4376 55.5499L62.2727 55.6316L62.1902 55.795L62.1077 55.8767L62.0252 56.0401L61.8603 56.2035L61.7778 56.2851L61.6953 56.4485L63.6749 58.0006L63.7573 57.919L63.9223 57.7556L64.0048 57.6739L64.0873 57.5105L64.2522 57.4288L64.3347 57.2654L64.4172 57.1021L64.5822 57.0204L64.6646 56.857L64.7471 56.7753L64.9121 56.6119L64.9946 56.4485L65.077 56.3668L65.242 56.2035L65.3245 56.0401L63.3449 54.4062Z" fill="#1D1D1B"/>
<path d="M66.5613 50.5667L66.3963 50.7301L66.3138 50.8118L66.1489 50.9752L66.0664 51.1385L65.9014 51.3019L65.819 51.4653L65.654 51.547L65.5715 51.7104L65.489 51.8738L65.3241 52.0371L65.2416 52.2005L65.0766 52.2822L64.9941 52.4456L66.9737 54.0794L67.0562 53.916L67.2211 53.8343L67.3036 53.671L67.4686 53.5076L67.5511 53.3442L67.716 53.2625L67.7985 53.0991L67.9635 52.9357L68.0459 52.7724L68.2109 52.609L68.2934 52.5273L68.4584 52.3639L68.5408 52.2005L68.6233 52.1188L66.6438 50.4033L66.5613 50.5667Z" fill="#1D1D1B"/>
<path d="M59.5518 12.4172C60.2941 11.0285 60.789 10.0482 61.6138 8.57776L60.6241 6.61717L59.6343 4.73828L58.562 6.69886L57.5723 8.65945C58.2321 9.9665 58.892 11.1102 59.5518 12.4172Z" fill="#1D1D1B"/>
<path d="M46.9304 6.37145H47.0129L47.0954 6.28976L47.2603 6.20807L47.3428 6.12638L47.5078 6.04469L47.5903 5.96299L47.6728 5.8813L47.8377 5.79961L47.9202 5.71792H48.0027L48.1676 5.63623L48.2501 5.55454L48.4151 5.47285L48.4976 5.39116L48.6625 5.30947H48.745L48.8275 5.22778H48.91L47.6728 2.94043H47.5903L47.5078 3.02212L47.3428 3.10381L47.2603 3.1855L47.0954 3.26719L46.9304 3.34888L46.8479 3.43058L46.683 3.51227L46.6005 3.59396H46.4355L46.3531 3.67565L46.1881 3.75734L46.1056 3.83903L45.9406 3.92072L45.7757 4.00241L45.6932 4.0841L45.5282 4.16579L45.4458 4.24748L45.3633 4.32918L46.8479 6.45314L46.9304 6.37145Z" fill="#1D1D1B"/>
<path d="M51.7148 18.8707H51.7973L51.8798 18.789L51.9623 18.7073H52.0448V18.6256H52.1272L52.2097 18.5439H52.2922V18.4622L52.3747 18.3805H52.4572V18.2989H52.5396L52.6221 18.2172L52.7046 18.1355H52.7871L52.8696 18.0538L52.9521 17.9721L52.0448 16.665L51.9623 16.7467H51.8798V16.8284H51.7973L51.7148 16.9101H51.6324L51.5499 16.9918V17.0735H51.4674L51.3849 17.1552H51.3024L51.2199 17.2369V17.3186H51.1375L51.055 17.4003H50.9725V17.4819L50.89 17.5636H50.8075L50.7251 17.6453V17.727H50.6426L51.7148 18.9524V18.8707Z" fill="#1D1D1B"/>
<path d="M50.5614 13.1524L50.6439 13.0708H50.7264L50.8089 12.9891L50.8914 12.9074H51.0563L51.1388 12.8257H51.2213L51.3038 12.744L51.3863 12.6623H51.4687L51.5512 12.5806H51.6337L51.7987 12.4989L51.8811 12.4172H51.9636L52.0461 12.3355H52.1286L52.2111 12.2538H52.2935L52.376 12.1722L51.4687 10.1299L51.3863 10.2116H51.3038L51.1388 10.2933H51.0563L50.9738 10.375L50.8089 10.4566H50.7264L50.6439 10.5383L50.5614 10.62H50.3965L50.314 10.7017L50.2315 10.7834H50.149L49.9841 10.8651L49.9016 10.9468L49.8191 11.0285H49.7366L49.5717 11.1102L49.4892 11.1919H49.4067L49.3242 11.2736L50.479 13.2341L50.5614 13.1524Z" fill="#1D1D1B"/>
<path d="M40.2509 13.4795L40.3334 13.3161V13.2344L40.4158 13.1527L40.4983 12.9894L40.5808 12.9077L40.6633 12.826L40.7458 12.6626L40.8282 12.5809L40.9107 12.4175L40.9932 12.3358V12.2541L41.0757 12.0908L41.1582 12.0091L41.2407 11.9274L41.3231 11.764L41.4056 11.6823L41.4881 11.6006L41.5706 11.5189L39.4261 9.9668V10.0485L39.3436 10.1302L39.2611 10.2936L39.1786 10.3753L39.0961 10.5386L39.0137 10.6203L38.8487 10.7837L38.7662 10.8654L38.6837 11.0288L38.6013 11.1105L38.5188 11.2739L38.4363 11.3555L38.3538 11.5189L38.2713 11.6823V11.764L38.1888 11.9274L38.1064 12.0091L38.0239 12.1725L37.9414 12.2541L40.1684 13.5612L40.2509 13.4795Z" fill="#1D1D1B"/>
<path d="M43.1373 9.63932L43.2198 9.55763L43.3023 9.39425L43.3847 9.31256L43.4672 9.23087L43.6322 9.14918L43.7147 9.06749L43.7972 8.9858L43.8796 8.82241L43.9621 8.74072L44.0446 8.65903L44.2096 8.57734L44.292 8.49565L44.3745 8.41396L44.457 8.33227L44.5395 8.25058L44.7044 8.16889L44.7869 8.0055L44.8694 7.92381L43.2198 6.04492H43.1373L43.0548 6.12661L42.9723 6.2083L42.8074 6.28999L42.7249 6.37169L42.6424 6.53507L42.4775 6.61676L42.395 6.69845L42.3125 6.78014L42.1475 6.94352L42.065 7.02521L41.9826 7.1069L41.9001 7.18859L41.7351 7.35198L41.6526 7.43367L41.5702 7.51536L41.4052 7.67874L41.3227 7.76043L41.2402 7.84212V7.92381L43.1373 9.63932Z" fill="#1D1D1B"/>
<path d="M47.2614 15.7664V15.6847L47.3439 15.603L47.4264 15.5213H47.5088L47.5913 15.4396L47.6738 15.3579L47.7563 15.2762L47.8388 15.1945L47.9213 15.1128L48.0037 15.0311H48.0862L48.1687 14.9495L48.2512 14.8678L48.3337 14.7861V14.7044L48.4161 14.6227H48.4986L48.5811 14.541L48.6636 14.4593L48.7461 14.3776L47.3439 12.6621L47.2614 12.7438H47.1789L47.0964 12.8255L47.014 12.9072L46.9315 12.9889L46.849 13.0706L46.7665 13.1523L46.6016 13.2339L46.5191 13.3156L46.4366 13.3973L46.3541 13.479L46.2716 13.5607L46.1891 13.6424L46.1067 13.7241L46.0242 13.8058L45.9417 13.8875L45.8592 13.9692L45.7767 14.0509L45.6943 14.1325L45.6118 14.2142H45.5293L47.1789 15.8481L47.2614 15.7664Z" fill="#1D1D1B"/>
<path d="M51.2207 4.16607L51.3032 4.08438L51.4681 4.00269H51.5506L51.7156 3.921H51.8805L51.963 3.83931L52.128 3.75762H52.2105L52.3754 3.67593H52.4579L52.6229 3.59424H52.7878L52.8703 3.51255H53.0353L53.1178 3.43086H53.2827L53.4477 3.34917L52.7878 0.898438H52.7054L52.5404 0.980128H52.3754L52.293 1.06182H52.128L51.963 1.14351H51.7981L51.7156 1.2252L51.5506 1.30689H51.3857L51.2207 1.38858H51.1382L50.9733 1.47027L50.8083 1.55196H50.6433L50.5608 1.63366L50.3959 1.71535H50.2309L50.1484 1.79704L51.1382 4.16607H51.2207Z" fill="#1D1D1B"/>
<path d="M55.8401 2.85918L56.0051 2.77749H56.1701H56.2525H56.4175L56.5825 2.6958H56.665H56.8299H56.9949H57.1598L57.2423 2.61411H57.4073H57.5723H57.6547H57.8197H57.9847H58.1496H58.2321H58.3146L58.1496 0H57.9847H57.8197H57.6547L57.4898 0.0816909H57.3248H57.1598H56.9949H56.8299L56.665 0.163382H56.5H56.335H56.2525L56.0876 0.245073H55.9226H55.7577H55.5927L55.4277 0.326764L55.8401 2.85918Z" fill="#1D1D1B"/>
<path d="M57.2429 16.2562H57.3254H57.4079L57.4904 16.1745H57.5729H57.6553H57.7378H57.8203H57.9028L57.9853 16.0928H58.0677H58.1502H58.2327H58.3152H58.3977H58.4802H58.5626H58.6451L58.4802 14.459H58.3977H58.3152H58.2327H58.1502H58.0677L57.9853 14.5407H57.9028H57.8203H57.7378H57.6553H57.5729H57.4904L57.4079 14.6224H57.3254H57.2429H57.1605H57.078H56.9955L56.913 14.7041H56.8305H56.748L57.1605 16.2562H57.2429Z" fill="#1D1D1B"/>
<path d="M54.4376 11.437H54.5201L54.6026 11.3553H54.6851H54.8501L54.9325 11.2736H55.015H55.0975L55.2625 11.1919H55.3449H55.4274L55.5099 11.1102H55.6749H55.7573L55.8398 11.0286H55.9223H56.0873H56.1698L56.2522 10.9469H56.4172L56.0048 8.74121H55.8398L55.7573 8.8229H55.5924H55.5099H55.3449L55.2625 8.90459H55.0975H55.015L54.9325 8.98628H54.7676L54.6851 9.06798H54.5201H54.4376L54.2727 9.14967H54.1902H54.1077L53.9428 9.23136H53.8603L53.6953 9.31305L54.3552 11.437H54.4376Z" fill="#1D1D1B"/>
<path d="M34.5605 25.4876V25.6509V25.7326V25.896V26.0594L34.643 26.2228V26.3045V26.4678V26.6312H37.2824V26.4678V26.3862L37.1999 26.2228V26.1411V25.9777V25.896V25.8143V25.6509V25.5692L37.1175 25.4059V25.3242V25.2425V25.0791L34.5605 25.2425V25.3242V25.4876Z" fill="#1D1D1B"/>
<path d="M54.2736 17.2366H54.3561V17.1549H54.4385H54.521L54.6035 17.0732H54.686L54.7685 16.9915H54.8509H54.9334L55.0159 16.9098H55.0984L55.1809 16.8282H55.2634H55.3458L55.4283 16.7465H55.5108L55.5933 16.6648H55.6758L55.0984 15.1943H55.0159H54.9334L54.8509 15.276H54.7685L54.686 15.3577H54.6035H54.521L54.4385 15.4394H54.3561H54.2736L54.1911 15.5211H54.1086L54.0261 15.6028H53.9437L53.8612 15.6845H53.7787L53.6962 15.7662H53.6137L53.5312 15.8479L54.2736 17.2366Z" fill="#1D1D1B"/>
<path d="M48.8284 19.6057V19.6874L48.7459 19.7691L48.6635 19.8507L48.581 19.9324V20.0141L48.4985 20.0958V20.1775H48.416V20.2592L49.7357 21.1578L49.8182 21.0761V20.9944L49.9007 20.9127L49.9832 20.831V20.7493H50.0656V20.6677L50.1481 20.586L50.2306 20.5043V20.4226L50.3131 20.3409H50.3956V20.2592H50.4781V20.1775L50.5605 20.0958L50.643 20.0141L49.4058 18.9521V19.0338H49.3233L49.2408 19.1155V19.1972L49.1583 19.2789H49.0759V19.3606L48.9934 19.4423L48.9109 19.524L48.8284 19.6057Z" fill="#1D1D1B"/>
<path d="M48.3347 23.7718L48.4172 23.6901V23.6084L48.4997 23.5267V23.445V23.3633L48.5822 23.2816V23.1999L48.6646 23.1182V23.0365V22.9549H48.7471V22.8732V22.7915L48.8296 22.7098V22.6281H48.9121V22.5464V22.4647L47.5099 21.7295L47.4274 21.8112V21.8929L47.3449 21.9746V22.0563L47.2625 22.1379V22.2196L47.18 22.3013V22.383V22.4647L47.0975 22.5464V22.6281L47.015 22.7098V22.7915V22.8732L46.9325 22.9549V23.0365L46.8501 23.1182V23.1999L46.7676 23.2816L48.3347 23.8535V23.7718Z" fill="#1D1D1B"/>
<path d="M57.16 56.612L57.0775 56.4486L56.995 56.2852L56.8301 56.2035L56.7476 56.0401L56.6651 55.9584L56.5001 55.795L56.4176 55.6317L56.3352 55.55L56.2527 55.3866L56.0877 55.2232L56.0052 55.1415L55.9228 54.9781L55.7578 54.8147L55.6753 54.7331L55.5928 54.6514L53.6133 56.2852L53.7782 56.4486L53.8607 56.612L53.9432 56.6936L54.1082 56.857L54.1906 57.0204L54.2731 57.1021L54.4381 57.2655L54.5206 57.4289L54.6031 57.5106L54.768 57.6739L54.8505 57.7556L54.933 57.919L55.0155 58.0824L55.1804 58.1641V58.2458L57.2425 56.6936L57.16 56.612Z" fill="#1D1D1B"/>
<path d="M53.9436 52.609L53.7787 52.4456L53.6962 52.2823L53.6137 52.2006L53.4487 52.0372L53.3663 51.8738L53.2013 51.7104L53.1188 51.6287L52.9539 51.4653L52.8714 51.302L52.7064 51.1386L52.6239 50.9752L52.5414 50.8935L52.3765 50.7301V50.6484L50.3145 52.2823L50.3969 52.3639L50.4794 52.4456L50.6444 52.609L50.7269 52.7724L50.8093 52.9358L50.9743 53.0992L51.0568 53.1809L51.2217 53.3442L51.3042 53.5076L51.4692 53.671L51.5517 53.8344L51.7166 53.9161L51.7991 54.0795L51.8816 54.2428H51.9641L53.9436 52.6907V52.609Z" fill="#1D1D1B"/>
<path d="M37.1995 22.6287L37.282 22.4653V22.3836V22.2203V22.0569V21.8935L37.3645 21.8118V21.6484V21.485V21.4033V21.24L37.4469 21.0766V20.9949V20.8315L37.5294 20.6681V20.5864V20.4231L37.6119 20.3414L35.055 19.7695L34.9725 19.9329V20.0963V20.2597L34.89 20.3414V20.5047V20.6681L34.8075 20.8315V20.9949V21.1583V21.3217L34.7251 21.485V21.5667V21.7301V21.8935L34.6426 22.0569V22.2203V22.3836V22.4653L37.1995 22.7104V22.6287Z" fill="#1D1D1B"/>
<path d="M56.8301 60.2876L56.9126 60.3693L59.552 63.5553L62.2738 60.2876L59.552 57.8369L56.8301 60.2876Z" fill="#1D1D1B"/>
<path d="M59.5517 50.4033L58.3969 51.8738L57.2422 53.3442L58.3969 54.8963L59.5517 56.3668L60.7064 54.8963L61.8611 53.3442L60.7064 51.8738L59.6341 50.4033H59.5517Z" fill="#1D1D1B"/>
<path d="M40.1689 24.752V24.9153V24.997V25.1604L40.0864 25.2421V25.4055V25.4872V25.6506V25.7322V25.8956L40.0039 25.9773V26.1407V26.2224V26.3858V26.4675V26.6308H42.2309L42.3134 26.5492V26.3858V26.3041V26.2224V26.059V25.9773V25.8956V25.7322L42.3959 25.6506V25.5689V25.4055V25.3238V25.2421L42.4783 25.0787L40.1689 24.752Z" fill="#1D1D1B"/>
<path d="M38.1893 17.8907L38.2718 17.7273V17.6456L38.3542 17.4822V17.4005L38.4367 17.2372L38.5192 17.1555V16.9921L38.6017 16.8287V16.747L38.6842 16.5836L38.7666 16.5019V16.3386L38.8491 16.2569V16.0935L38.9316 16.0118L39.0141 15.8484V15.7667L39.0966 15.685L36.7046 14.623V14.7047L36.6221 14.8681L36.5397 14.9498L36.4572 15.1132V15.2766L36.3747 15.3583L36.2922 15.5216V15.685L36.2097 15.8484L36.1272 15.9301V16.0935L36.0448 16.2569L35.9623 16.4202V16.5019L35.8798 16.6653V16.8287L35.7973 16.9921L35.7148 17.0738V17.1555L38.1893 17.9724V17.8907Z" fill="#1D1D1B"/>
<path d="M44.6221 19.1153L44.7046 19.0336V18.952L44.7871 18.8703L44.8696 18.7886V18.7069L44.9521 18.6252L45.0345 18.4618V18.3801L45.117 18.2984L45.1995 18.2167L45.282 18.135V18.0534L45.3645 17.9717L45.4469 17.89V17.8083L45.5294 17.7266L45.6119 17.6449L45.6944 17.5632V17.4815L45.7769 17.3998L43.9623 16.0928H43.8798V16.2562L43.7973 16.3378L43.7148 16.4195L43.6324 16.5012L43.5499 16.5829L43.4674 16.6646V16.828L43.3849 16.9097L43.3024 16.9914L43.2199 17.0731L43.1375 17.1548V17.2364L43.055 17.3998L42.9725 17.4815L42.89 17.5632V17.6449L42.8075 17.8083L42.7251 17.89L42.6426 17.9717V18.0534L44.6221 19.197V19.1153Z" fill="#1D1D1B"/>
<path d="M42.8906 23.0369L42.9731 22.9552V22.8735V22.7102L43.0556 22.6285V22.5468L43.138 22.4651V22.3017V22.22L43.2205 22.1383V22.0566L43.303 21.9749V21.8116L43.3855 21.7299V21.6482V21.5665L43.468 21.4848V21.3214L43.5504 21.2397V21.158L43.6329 21.0763L41.5709 20.1777L41.4884 20.2594L41.4059 20.4228V20.5045L41.3235 20.5862V20.7496L41.241 20.8313V20.913L41.1585 21.0763V21.158L41.076 21.2397V21.4031L40.9935 21.4848V21.6482L40.9111 21.7299V21.8116L40.8286 21.9749V22.0566V22.1383L40.7461 22.3017V22.3834V22.4651L42.8906 23.0369Z" fill="#1D1D1B"/>
<path d="M47.6746 26.5498V26.4681L47.757 26.3865V26.3048V26.2231V26.1414V26.0597V25.978V25.8963L47.8395 25.8146V25.7329V25.6512V25.5695V25.4879L47.922 25.4062V25.3245V25.2428L46.3549 24.916V24.9977L46.2724 25.0794V25.1611V25.2428V25.3245V25.4062L46.1899 25.4879V25.5695V25.6512V25.7329V25.8146V25.8963L46.1074 25.978V26.0597V26.1414V26.2231V26.3048V26.3865V26.4681V26.5498V26.6315H47.6746V26.5498Z" fill="#1D1D1B"/>
<path d="M119.681 38.8029L114.154 34.555C113.412 33.9831 113.082 33.2479 113.082 32.5127C113.082 30.6338 114.814 29.8169 116.464 29.8169C118.031 29.8169 119.516 30.3887 119.516 32.1859H119.846L119.763 29.2451H118.856C118.114 29.0817 117.289 29 116.299 29C114.649 29 113.082 29.5718 112.175 30.9606C111.185 32.5127 111.515 34.7184 112.917 35.9437L118.443 40.11C119.103 40.6818 119.433 41.417 119.433 42.3156C119.433 44.4396 117.454 45.3382 115.557 45.3382C113.247 45.3382 111.598 43.8678 111.927 41.4987H111.598C111.35 42.1522 111.268 42.8875 111.268 43.541C111.268 44.1945 111.268 44.6847 111.35 44.848C112.422 45.8283 114.649 46.1551 116.134 46.1551C118.691 46.1551 121 44.3579 121 41.7438C121 40.4367 120.505 39.4564 119.681 38.8029Z" fill="#1D1D1B"/>
<path d="M91.39 45.0112C91.0601 44.7661 90.8126 44.3576 90.8126 43.9492V31.042C90.8126 30.6336 91.0601 30.3068 91.39 30.0617C91.8849 29.6533 92.3798 29.6533 93.0396 29.6533V29.4082H86.8535V29.6533C87.5134 29.6533 88.0083 29.6533 88.5031 30.0617C88.8331 30.3885 89.0805 30.7153 89.0805 31.1237V43.9492C89.0805 44.8478 88.0907 45.4196 87.2659 45.4196H86.8535V45.6647H93.1221V45.4196C92.3798 45.4196 91.8849 45.4196 91.39 45.0112Z" fill="#1D1D1B"/>
<path d="M82.3988 43.4597C81.9864 43.0512 81.4915 42.3977 80.8316 41.5808C80.1718 40.7639 79.8419 40.3554 79.8419 40.3554C79.017 39.2118 78.2747 38.4765 77.6973 38.2315C80.2543 37.9864 81.9864 36.1075 81.9864 33.5751C81.9864 30.4708 79.0995 29.3271 76.3776 29.3271H69.4492V29.5722H69.8616C70.6864 29.5722 71.4288 30.1441 71.4288 30.961V43.8681C71.4288 44.2766 71.2638 44.6034 70.9339 44.9301C70.439 45.3386 70.0266 45.3386 69.4492 45.3386V45.5836H75.0579V45.3386C74.6455 45.3386 74.3156 45.3386 73.9032 45.1752C73.4083 44.8484 73.1609 44.44 73.1609 43.8681V30.2257H74.6455C76.1302 30.2257 77.7798 30.1441 79.017 31.206C80.3367 32.4314 80.2543 34.7187 79.347 36.1892C79.0995 36.5159 78.6871 36.8427 78.1098 37.1695C77.6973 37.4146 76.3776 37.4962 74.2331 37.4962V37.7413C75.9652 37.7413 77.3674 40.1104 78.3572 41.4174C79.347 42.8062 80.0068 43.9498 81.4915 44.9301C82.7287 45.8287 84.2958 45.747 85.7805 45.747V45.502C84.1309 45.4203 83.3061 44.5217 82.3988 43.4597Z" fill="#1D1D1B"/>
<path d="M67.5517 29.5716V26.1406C67.3867 26.2223 67.0568 26.304 66.4794 26.4674C65.9021 26.6308 65.1597 26.7125 64.2524 26.7125H54.9321C54.0248 26.7125 52.4576 26.5491 51.6328 26.2223V29.6533H51.8803V29.1632C51.8803 28.2646 52.5401 27.5294 53.4474 27.5294H58.6437V43.8676C58.6437 44.3577 58.4788 44.6845 58.0664 45.0112C57.5715 45.5014 57.1591 45.5014 56.4992 45.5014V45.7465H62.5203V45.5014H62.1904C61.2006 45.5014 60.4583 44.7662 60.4583 43.7859V27.4477H65.6546C66.5619 27.4477 67.2218 28.1829 67.2218 29.0815V29.5716H67.5517Z" fill="#1D1D1B"/>
<path d="M102.525 29.3271H96.0918V29.5722H96.5042C97.329 29.5722 98.0713 30.1441 98.0713 31.0427V43.9498C98.0713 44.3583 97.9064 44.685 97.5765 45.0118C97.0816 45.4203 96.6692 45.4203 96.0918 45.4203V45.6653H101.783V45.4203C101.371 45.4203 101.041 45.4203 100.628 45.2569C100.133 45.0118 99.8859 44.5217 99.8035 43.9498V30.1441H102.443C104.752 30.1441 106.814 31.206 106.814 33.7385C106.814 34.392 106.732 34.8821 106.649 35.2089C106.319 36.1892 105.742 37.0061 104.917 37.4146C103.845 38.1498 102.113 38.2315 100.876 37.9047V38.1498C101.783 38.5582 102.773 38.8033 103.763 38.8033C106.732 38.8033 108.794 36.8427 108.794 33.9018C108.794 30.5525 105.495 29.3271 102.525 29.3271Z" fill="#1D1D1B"/>
<path d="M60.3754 47.5442C60.3754 46.7273 59.798 46.4822 58.9732 46.8907C52.6221 50.24 47.3433 44.7667 42.6419 37.0878L47.0959 30.961C47.4258 30.5525 47.8382 30.2257 48.2506 29.9807C48.9105 29.5722 49.4054 29.5722 50.0652 29.5722V29.3271H43.9616V29.5722C44.374 29.5722 44.7864 29.5722 45.1163 29.9807C45.3638 30.3074 45.5287 30.6342 45.1988 31.0427L41.8996 36.0258L38.4353 31.0427C38.1879 30.6342 38.2704 30.3891 38.5178 29.9807C38.7653 29.5722 39.2602 29.5722 39.6726 29.5722V29.3271H33.239V29.5722H33.569C34.5587 29.5722 35.631 30.1441 36.2084 30.961L40.8273 37.5779L35.7135 44.1132C34.8062 45.1752 34.0638 45.4203 32.7441 45.4203V45.6653H38.7653V45.4203C38.3529 45.4203 37.858 45.4203 37.6105 45.0118C37.3631 44.6033 37.1981 44.2766 37.5281 43.8681L41.5696 38.4765C49.4054 49.7499 60.4578 50.6485 60.3754 47.5442Z" fill="#1D1D1B"/>
<path d="M7.83572 44.8479H3.87662V28.5914C3.87662 28.2647 3.9591 28.0196 4.12406 27.6928C4.61895 26.8759 5.19632 26.8759 6.02113 26.8759V26.6309H0V26.8759H0.329925C1.3197 26.8759 2.06203 27.6112 2.06203 28.5914V43.7043C2.06203 44.6846 1.23722 45.4198 0.329925 45.4198H0V45.6649H11.3824L12.9496 41.2535H12.7021C11.7948 43.6226 10.4751 44.8479 7.83572 44.8479Z" fill="#1D1D1B"/>
<path d="M27.3844 29.6533H27.7968C28.5391 29.6533 29.1165 30.1434 29.1165 30.7969V39.9463C29.1165 43.2957 26.972 45.3379 23.5902 45.3379C20.0435 45.3379 18.3939 42.9689 18.3939 39.6196V30.7969C18.3939 30.4702 18.5589 30.2251 18.8063 29.98C19.2187 29.5716 19.6311 29.6533 20.126 29.6533V29.4082H14.9297V29.6533C15.4246 29.6533 15.837 29.6533 16.2494 29.98C16.4968 30.2251 16.6618 30.4702 16.6618 30.7969V39.9463C16.6618 44.0309 19.6311 46.0732 23.5077 46.0732C27.3844 46.0732 30.3537 44.0309 30.3537 39.9463V30.7969C30.3537 30.5519 30.4362 30.3885 30.5186 30.2251C30.9311 29.6533 31.4259 29.6533 32.0858 29.6533V29.4082H27.3844V29.6533Z" fill="#1D1D1B"/>
</svg>
